ffmpeg version 3.4.8-0ubuntu0.2 Copyright (c) 2000-2020 the FFmpeg developers
  built with gcc 7 (Ubuntu 7.5.0-3ubuntu1~18.04)
  configuration: --prefix=/usr --extra-version=0ubuntu0.2 --toolchain=hardened --libdir=/usr/lib/x86_64-linux-gnu --incdir=/usr/include/x86_64-linux-gnu --enable-gpl --disable-stripping --enable-avresample --enable-avisynth --enable-gnutls --enable-ladspa --enable-libass --enable-libbluray --enable-libbs2b --enable-libcaca --enable-libcdio --enable-libflite --enable-libfontconfig --enable-libfreetype --enable-libfribidi --enable-libgme --enable-libgsm --enable-libmp3lame --enable-libmysofa --enable-libopenjpeg --enable-libopenmpt --enable-libopus --enable-libpulse --enable-librubberband --enable-librsvg --enable-libshine --enable-libsnappy --enable-libsoxr --enable-libspeex --enable-libssh --enable-libtheora --enable-libtwolame --enable-libvorbis --enable-libvpx --enable-libwavpack --enable-libwebp --enable-libx265 --enable-libxml2 --enable-libxvid --enable-libzmq --enable-libzvbi --enable-omx --enable-openal --enable-opengl --enable-sdl2 --enable-libdc1394 --enable-libdrm --enable-libiec61883 --enable-chromaprint --enable-frei0r --enable-libopencv --enable-libx264 --enable-shared
  libavutil      55. 78.100 / 55. 78.100
  libavcodec     57.107.100 / 57.107.100
  libavformat    57. 83.100 / 57. 83.100
  libavdevice    57. 10.100 / 57. 10.100
  libavfilter     6.107.100 /  6.107.100
  libavresample   3.  7.  0 /  3.  7.  0
  libswscale      4.  8.100 /  4.  8.100
  libswresample   2.  9.100 /  2.  9.100
  libpostproc    54.  7.100 / 54.  7.100
[rawvideo @ 0x5578eb30ea20] Estimating duration from bitrate, this may be inaccurate
Input #0, rawvideo, from '../../SVC-Encoder-20220109T061506Z-001/SVC-Encoder/Dataset/RollerCoaster/ERP_8x8/tile_yuv/Tile_58_480x240.yuv':
  Duration: 00:00:10.00, start: 0.000000, bitrate: 41472 kb/s
    Stream #0:0: Video: rawvideo (I420 / 0x30323449), yuv420p, 480x240, 41472 kb/s, 30 tbr, 30 tbn, 30 tbc
Stream mapping:
  Stream #0:0 -> #0:0 (rawvideo (native) -> h264 (libx264))
Press [q] to stop, [?] for help
[libx264 @ 0x5578eb31bc60] using cpu capabilities: MMX2 SSE2Fast LZCNT SSSE3 SSE4.2 AVX
[libx264 @ 0x5578eb31bc60] profile High, level 2.1
Output #0, rawvideo, to 'RollerCoaster_Tile_58_480x240_x264_QP_28.h264':
  Metadata:
    encoder         : Lavf57.83.100
    Stream #0:0: Video: h264 (libx264), yuv420p, 480x240, q=-1--1, 30 fps, 30 tbn, 30 tbc
    Metadata:
      encoder         : Lavc57.107.100 libx264
    Side data:
      cpb: bitrate max/min/avg: 0/0/0 buffer size: 0 vbv_delay: -1
frame=  234 fps=0.0 q=34.0 PSNR=Y:nan U:nan V:nan *:nan size=      54kB time=00:00:06.36 bitrate=  69.5kbits/s speed=12.7x    frame=  300 fps=0.0 q=34.0 LPSNR=Y:inf U:inf V:inf *:inf size=      83kB time=00:00:09.93 bitrate=  68.2kbits/s speed=14.1x    
video:83kB audio:0kB subtitle:0kB other streams:0kB global headers:0kB muxing overhead: 0.000000%
[libx264 @ 0x5578eb31bc60] frame I:2     Avg QP:25.97  size:  5696  PSNR Mean Y:45.25 U:48.83 V:43.96 Avg:45.41 Global:45.37
[libx264 @ 0x5578eb31bc60] frame P:77    Avg QP:26.44  size:   536  PSNR Mean Y:44.62 U:48.51 V:44.39 Avg:45.02 Global:44.97
[libx264 @ 0x5578eb31bc60] frame B:221   Avg QP:33.42  size:   145  PSNR Mean Y:44.41 U:48.49 V:44.36 Avg:44.85 Global:44.80
[libx264 @ 0x5578eb31bc60] consecutive B-frames:  0.7%  2.7%  2.0% 94.7%
[libx264 @ 0x5578eb31bc60] mb I  I16..4: 26.4% 30.4% 43.1%
[libx264 @ 0x5578eb31bc60] mb P  I16..4:  1.8%  0.4%  0.1%  P16..4: 34.3%  6.2%  0.8%  0.0%  0.0%    skip:56.4%
[libx264 @ 0x5578eb31bc60] mb B  I16..4:  0.1%  0.0%  0.0%  B16..8: 25.4%  0.8%  0.0%  direct: 0.0%  skip:73.7%  L0:46.6% L1:52.8% BI: 0.6%
[libx264 @ 0x5578eb31bc60] 8x8 transform intra:22.3% inter:85.9%
[libx264 @ 0x5578eb31bc60] coded y,uvDC,uvAC intra: 21.7% 39.6% 24.2% inter: 1.6% 2.2% 0.0%
[libx264 @ 0x5578eb31bc60] i16 v,h,dc,p: 17% 68% 12%  3%
[libx264 @ 0x5578eb31bc60] i8 v,h,dc,ddl,ddr,vr,hd,vl,hu: 11% 15% 67%  1%  1%  0%  2%  0%  2%
[libx264 @ 0x5578eb31bc60] i4 v,h,dc,ddl,ddr,vr,hd,vl,hu:  6% 69% 15%  1%  2%  1%  3%  0%  3%
[libx264 @ 0x5578eb31bc60] i8c dc,h,v,p: 36% 58%  5%  1%
[libx264 @ 0x5578eb31bc60] Weighted P-Frames: Y:1.3% UV:0.0%
[libx264 @ 0x5578eb31bc60] ref P L0: 55.7%  9.7% 26.4%  8.2%  0.0%
[libx264 @ 0x5578eb31bc60] ref B L0: 69.0% 25.2%  5.8%
[libx264 @ 0x5578eb31bc60] ref B L1: 85.2% 14.8%
[libx264 @ 0x5578eb31bc60] PSNR Mean Y:44.468 U:48.496 V:44.364 Avg:44.900 Global:44.850 kb/s:67.74
